# xmcd
#
# Track frame offsets: 
#        150
#        14511
#        25150
#        37878
#        49243
#        62643
#        74816
#        84545
#        98862
#        110910
#        122772
#        134267
#        145824
#        159707
#        174403
#        186416
#        198214
#        210794
#        222764
#        235905
#        250636
#        264131
#        278148
#        288408
#        299549
#
# Disc length: 4141 seconds
#
# Revision: 1
# Processed by: cddbd v1.5.2PL0 Copyright (c) Steve Scherf et al.
# Submitted via: ExactAudioCopyFreeDBPlugin 1.0
#
DISCID=77102b19
DTITLE=Various Artist - Downhome Blues Classics, Texas - CD2
DYEAR=2015
DGENRE=Blues
TTITLE0=West Texas Slim - Loudella (1952-53)
TTITLE1=Thunder Smith - Big Stars Are Falling (1949)
TTITLE2=Stick Horse Hammond - Alberta (1950)
TTITLE3=Frankie Lee Sims - Lucy Mae Blues (1953)
TTITLE4=Rattlesnake Cooper - Lost Woman Blues (1949)
TTITLE5=Mercy Dee - Lonesome Cabin Blues (1949)
TTITLE6=Lil' Son Jackson - Bad Whiskey, Bad Woman (1948)
TTITLE7=Smokey Hogg` - Worried Blues (1949)
TTITLE8=Willie Lane - Prowlin' Ground Hog (1949)
TTITLE9=Manny Nichols - Walking Talking Blues (1949)
TTITLE10=Sonny Boy Davis - Rhythm Blues (1949)
TTITLE11=L.C. Williams - Strike Blues (1948)
TTITLE12=Big Son Tillis - Rocks Is My Pillow (1953)
TTITLE13=Clarence Garlow - Bon Ton Roula (1949)
TTITLE14=Sunny James - Please Mam Forgive Me (1948)
TTITLE15=Wright Holmes - Drove From Home Blues (1947)
TTITLE16=Leroy Ervin - Blue, Black and Evil (1947)
TTITLE17=Pete McKinley - Mean Black Snake (1952)
TTITLE18=Manny Nichols - Tall Skinny Mama Blues (1949)
TTITLE19=Ernest Lewis - No More Lovin' (1952-53)
TTITLE20=Bill Simpson - Jelly Roll Man (1954) 
TTITLE21=Soldier Boy Houston - Dallas Be Bop Blues (1950)
TTITLE22=Perry Cain - A|l The Way From Texas (1948)
TTITLE23=John Hogg - Black Snake Blues (1951)
TTITLE24=Buddy Chiles - Jet Black Woman (1949)
EXTD=YEAR: 2005
EXTT0=
EXTT1=
EXTT2=
EXTT3=
EXTT4=
EXTT5=
EXTT6=
EXTT7=
EXTT8=
EXTT9=
EXTT10=
EXTT11=
EXTT12=
EXTT13=
EXTT14=
EXTT15=
EXTT16=
EXTT17=
EXTT18=
EXTT19=
EXTT20=
EXTT21=
EXTT22=
EXTT23=
EXTT24=
PLAYORDER=
